<svg id="visual" viewBox="0 0 900 600" width="900" height="600" xmlns="http://www.w3.org/2000/svg" xmlns:xlink="http://www.w3.org/1999/xlink" version="1.1"><path d="M0 193L82 241L164 169L245 115L327 103L409 103L491 241L573 109L655 133L736 133L818 283L900 271L900 0L818 0L736 0L655 0L573 0L491 0L409 0L327 0L245 0L164 0L82 0L0 0Z" fill="#001122"></path><path d="M0 295L82 331L164 313L245 211L327 271L409 259L491 331L573 175L655 259L736 181L818 361L900 391L900 269L818 281L736 131L655 131L573 107L491 239L409 101L327 101L245 113L164 167L82 239L0 191Z" fill="#01182d"></path><path d="M0 451L82 445L164 457L245 451L327 493L409 457L491 463L573 403L655 433L736 421L818 493L900 499L900 389L818 359L736 179L655 257L573 173L491 329L409 257L327 269L245 209L164 311L82 329L0 293Z" fill="#001e39"></path><path d="M0 529L82 511L164 505L245 517L327 547L409 541L491 535L573 499L655 493L736 517L818 559L900 553L900 497L818 491L736 419L655 431L573 401L491 461L409 455L327 491L245 449L164 455L82 443L0 449Z" fill="#002445"></path><path d="M0 601L82 601L164 601L245 601L327 601L409 601L491 601L573 601L655 601L736 601L818 601L900 601L900 551L818 557L736 515L655 491L573 497L491 533L409 539L327 545L245 515L164 503L82 509L0 527Z" fill="#002952"></path></svg>